inDegrees=yes
name=ik_S41_A12_T02
DataType=double
version=3
OpenSimVersion=4.3-2021-08-27-4bc7ad9
endheader
time	pelvis_tilt	pelvis_list	pelvis_rotation	pelvis_tx	pelvis_ty	pelvis_tz	hip_flexion_r	hip_adduction_r	hip_rotation_r	knee_angle_r	knee_angle_r_beta	ankle_angle_r	subtalar_angle_r	mtp_angle_r	hip_flexion_l	hip_adduction_l	hip_rotation_l	knee_angle_l	knee_angle_l_beta	ankle_angle_l	subtalar_angle_l	mtp_angle_l	lumbar_extension	lumbar_bending	lumbar_rotation	arm_flex_r	arm_add_r	arm_rot_r	elbow_flex_r	pro_sup_r	wrist_flex_r	wrist_dev_r	arm_flex_l	arm_add_l	arm_rot_l	elbow_flex_l	pro_sup_l	wrist_flex_l	wrist_dev_l
12.77999999999982	-0.2066377994680389	2.816906921089014	14.8748419874307	0	0.9399999999999999	0	34.41151683177101	-9.744868688629806	-9.257587707658685	39.4684081640635	0.6888536729839184	0	0	0	34.41151683177101	-9.744868688629806	-9.257587707658685	39.4684081640635	0.6888536729839184	0	0	0	0.1209858342953929	2.890529407639375	2.896380801165459	5.100267498372793	-9.553241781115856	-7.283529883816227	-7.940490039705745	109.3640608731069	0	0	54.6108390460932	-31.94488331423513	-19.97791075808248	34.97701026396519	51.30770398943886	0	0
12.79999999999982	-0.2040232735431888	2.815551647259968	14.88442002277455	0	0.9399999999999999	0	34.41606399999652	-9.745242546056268	-9.258286525291892	39.47306253293475	0.6889349070453241	0	0	0	34.41606399999652	-9.745242546056268	-9.258286525291892	39.47306253293475	0.6889349070453241	0	0	0	0.127388368916197	2.884419059243512	2.903916674758681	5.089272570850023	-9.531007451516375	-7.407343385574656	-7.940373261383672	109.3767672867238	0	0	51.40333721922308	-30.85056704135947	-21.63332581752467	35.38024620149037	52.51063006575326	0	0
12.81999999999982	-0.1668127553525444	2.723196841471262	14.83478209475782	0	0.9399999999999999	0	34.42199209922578	-9.745730582575172	-9.259198537778005	39.47911704407917	0.6890405781993928	0	0	0	34.42199209922578	-9.745730582575172	-9.259198537778005	39.47911704407917	0.6890405781993928	0	0	0	0.1439251766980805	2.785068259211244	2.922868651471703	5.058320476515369	-9.336615067390031	-7.511456763974239	-7.861447197679716	109.4718919266064	0	0	48.28542514222142	-29.59496268188382	-23.06839232353407	33.51269007012659	54.99373385116427	0	0
12.83999999999982	-0.136124277502548	2.694691646320631	14.69059814903409	0	0.9399999999999999	0	34.42770267118215	-9.746199998132933	-9.260076403130853	39.48495146258135	0.6891424080121952	0	0	0	34.42770267118215	-9.746199998132933	-9.260076403130853	39.48495146258135	0.6891424080121952	0	0	0	0.1679168113825145	2.752625815700709	2.95146082246056	5.00204980046019	-9.214269103285821	-7.496800692049889	-7.78613756604156	109.4583600610392	0	0	45.18352485466056	-28.23611126092182	-24.39005379986639	31.42884328946047	57.73874115650474	0	0
12.85999999999981	-0.1267838392831752	2.65479822364	14.53480117246239	0	0.9399999999999999	0	34.4335377455732	-9.746679210588217	-9.260973068067534	39.49091182872306	0.6892464360259923	0	0	0	34.4335377455732	-9.746679210588217	-9.260973068067534	39.49091182872306	0.6892464360259923	0	0	0	0.1648453626372674	2.717884711133693	3.015829712077849	5.0073404668537	-9.080508242544139	-7.419944106362436	-7.744869534493866	109.3068976511773	0	0	42.36782923867315	-26.85817792386504	-25.33186039346448	29.05572473297554	60.86321064364522	0	0
12.87999999999981	-0.1117160143627303	2.61223117139284	14.17161415043848	0	0.9399999999999999	0	34.55238229657451	-9.753435710579128	-9.275553111020672	39.64675354647002	0.6919663871126405	0	0	0	34.55238229657451	-9.753435710579128	-9.275553111020672	39.64675354647002	0.6919663871126405	0	0	0	0.1496716289634006	2.690991449152978	3.388168133279734	5.009178503533406	-8.968740801574715	-7.489202786743775	-7.709591363367373	109.2608849990074	0	0	37.08734514724368	-23.83767250783352	-25.06640972508933	32.1893265164826	61.11779570236792	0	0
12.89999999999981	-0.04658678926312945	2.575552043727131	13.85214999314136	0	0.9399999999999999	0	34.56859543716438	-9.754741462645471	-9.278019698514461	39.66331209863266	0.6922553883672418	0	0	0	34.56859543716438	-9.754741462645471	-9.278019698514461	39.66331209863266	0.6922553883672418	0	0	0	0.1907153047907638	2.642145197655472	3.638950061268709	4.891967304865334	-8.868354108812017	-7.625864020858332	-7.609994323787648	109.3944984652393	0	0	34.71547460104819	-22.17463362694744	-25.17869120777769	25.54103101154841	66.37622879032294	0	0
12.91999999999981	0.04263375281048089	2.555167805303511	13.67082882751449	0	0.9399999999999999	0	34.57541011231488	-9.755283386606502	-9.279047824207542	39.67035605700538	0.6923783286332191	0	0	0	34.57541011231488	-9.755283386606502	-9.279047824207542	39.67035605700538	0.6923783286332191	0	0	0	0.2696359186514248	2.601298871115675	3.687596448762415	4.752683860249419	-8.750950995186562	-7.510046553857944	-7.599571261487926	109.2656007416186	0	0	34.6036501771588	-22.14764337209395	-25.51973828557154	20.6673284857313	69.24815782175268	0	0
12.93999999999981	0.174937497881175	2.577554672607091	13.27438500024543	0	0.9399999999999999	0	34.58092092548372	-9.755726487535911	-9.279885443719094	39.67598876137589	0.692476637870276	0	0	0	34.58092092548372	-9.755726487535911	-9.279885443719094	39.67598876137589	0.692476637870276	0	0	0	0.3966071872389318	2.595214391206229	3.839733174742465	4.492985341292389	-8.722022377794817	-7.496505046066583	-7.52773643024222	109.3397501232673	0	0	31.96217441908936	-20.78115284490888	-25.37259965091779	23.34361577275628	68.43628530262536	0	0
12.95999999999981	0.2822085831083187	2.597931409224433	12.85852700461718	0	0.9399999999999999	0	34.58707972283869	-9.756215026720131	-9.280813543556469	39.68235454250974	0.6925877417105231	0	0	0	34.58707972283869	-9.756215026720131	-9.280813543556469	39.68235454250974	0.6925877417105231	0	0	0	0.4989144484790499	2.580910411883446	4.036109990845508	4.233307889647569	-8.741835371790451	-7.741723790597493	-7.364543203050306	109.6578793395837	0	0	31.74864699036025	-20.85211214974176	-26.21443313093178	12.84551688898226	74.07372890506274	0	0
12.97999999999981	0.3440004762580086	2.556536956290453	12.49885025600322	0	0.9399999999999999	0	34.69815830544439	-9.762418677499516	-9.2943164454769	39.82792105046797	0.6951283565550248	0	0	0	34.69815830544439	-9.762418677499516	-9.2943164454769	39.82792105046797	0.6951283565550248	0	0	0	0.5429946152527934	2.525685818312433	4.410281338182977	4.074956730730976	-8.656702907750169	-7.966672868082597	-7.344192136708485	109.8156015928866	0	0	27.95060129092785	-17.40927479903095	-25.65309830508367	15.48537815467497	73.63392196013966	0	0
12.99999999999981	0.401030086262306	2.475296400349531	12.35734634037193	0	0.9399999999999999	0	34.70347333479674	-9.762838982860984	-9.295117322011722	39.83335447116353	0.6952231876358083	0	0	0	34.70347333479674	-9.762838982860984	-9.295117322011722	39.83335447116353	0.6952231876358083	0	0	0	0.5697356994909749	2.441653899105275	4.668525163848753	3.903436260003903	-8.470836286048801	-8.114018472289311	-7.348634043231122	109.8278172197917	0	0	26.60932747932873	-15.65929793569052	-24.9566610064515	13.65811486930178	74.35608808096879	0	0
13.01999999999981	0.4975716839239506	2.41837485636658	12.13044471188705	0	0.9399999999999999	0	34.70652408230811	-9.763079014687026	-9.295575572255069	39.83648520346656	0.6952778292224946	0	0	0	34.70652408230811	-9.763079014687026	-9.295575572255069	39.83648520346656	0.6952778292224946	0	0	0	0.6459882079213287	2.369470027089509	4.81082066961703	3.690722590295713	-8.267473415895472	-7.910058820070068	-7.409667255796564	109.6855586565747	0	0	25.09248962319495	-14.24398401354499	-24.44770717041287	13.44699226617086	74.4217163041554	0	0
13.03999999999981	0.6314899697015222	2.393643038662838	11.81853667166386	0	0.9399999999999999	0	34.71281188827427	-9.763575246826406	-9.296522118525461	39.84291395969125	0.6953900321854236	0	0	0	34.71281188827427	-9.763575246826406	-9.296522118525461	39.84291395969125	0.6953900321854236	0	0	0	0.7639089768390699	2.327647247625705	4.947786528917822	3.408390879342575	-8.134023625155725	-7.66040912943426	-7.434508794357988	109.5062426099532	0	0	23.41276713457477	-13.16112999842096	-24.08111250196982	9.829301280415518	76.20686723934703	0	0
13.05999999999981	0.7245375226209402	2.401612886040605	11.57863051802848	0	0.9399999999999999	0	34.71583282028217	-9.763812675925099	-9.296975730150328	39.84601187797691	0.695444101059466	0	0	0	34.71583282028217	-9.763812675925099	-9.296975730150328	39.84601187797691	0.695444101059466	0	0	0	0.8500858984997558	2.320214626060316	5.107730198685995	3.180169102034754	-8.148478719522114	-7.692179294835093	-7.462090799194026	109.5669381655145	0	0	21.93335178198019	-11.81752108101364	-23.46652362892759	9.704958219744292	76.34331834730276	0	0
13.07999999999981	0.8883806463825651	2.420840989866353	11.2898794214656	0	0.9399999999999999	0	34.72303561493815	-9.76438086384584	-9.298060089970138	39.85336629654805	0.6955724598781023	0	0	0	34.72303561493815	-9.76438086384584	-9.298060089970138	39.85336629654805	0.6955724598781023	0	0	0	1.005449144063984	2.312554697481519	5.300463695522491	2.794055884982275	-8.184987241367654	-7.827715778672442	-7.401284025300465	109.7929284542353	0	0	20.42615199158613	-10.59591234578893	-22.74369436375185	8.012311821703227	77.71640422911672	0	0
13.09999999999981	1.062881018496766	2.396927982761003	11.00931567702424	0	0.9399999999999999	0	34.72919979852	-9.76486605503804	-9.298987004562557	39.85966492049801	0.695682391604374	0	0	0	34.72919979852	-9.76486605503804	-9.298987004562557	39.85966492049801	0.695682391604374	0	0	0	1.163158936367831	2.261673836377266	5.509561190032311	2.422128898368626	-8.156383546478104	-7.914020445120456	-7.450866544264492	109.8662913636564	0	0	18.87349084663907	-9.711645957999314	-21.84483367269183	6.41355806006618	79.51234131515389	0	0
13.11999999999981	1.103909842479997	2.373544004237625	10.78991331578534	0	0.9399999999999999	0	34.73506258798947	-9.765326761310705	-9.299867854305251	39.86565787250284	0.6957869883487723	0	0	0	34.73506258798947	-9.765326761310705	-9.299867854305251	39.86565787250284	0.6957869883487723	0	0	0	1.190032386107539	2.237804312742709	5.725697564456499	2.285888991903636	-8.126314722404475	-7.896890131136675	-7.444159110638519	109.8276417000145	0	0	17.5028363695036	-8.891866920324869	-20.8383680644285	5.253472960744987	81.21976635711989	0	0
